<mxfile modified="2022-09-21T08:47:40.007Z" host="app.diagrams.net" agent="5.0 (X11)" etag="nmQYbgOcsIxF1RMHTtDz" version="20.3.0" type="github">
  <diagram id="Ht1M8jgEwFfnCIfOTk4-" name="Page-1">
    <mxGraphModel dx="1420" dy="705" grid="1" gridSize="10" guides="1" tooltips="1" connect="1" arrows="1" fold="1" page="1" pageScale="1" pageWidth="1169" pageHeight="827" math="0" shadow="0">
      <root>
        <mxCell id="0" />
        <mxCell id="1" parent="0" />
        <mxCell id="q0bb3oW_kQukIJ3BtiQ_-22" value="" style="rounded=1;arcSize=10;dashed=0;fillColor=none;gradientColor=none;strokeWidth=2;" vertex="1" parent="1">
          <mxGeometry x="80" y="80" width="1120" height="640" as="geometry" />
        </mxCell>
        <mxCell id="q0bb3oW_kQukIJ3BtiQ_-23" value="" style="dashed=0;html=1;shape=mxgraph.aws3.cloud;fillColor=#F58536;gradientColor=none;dashed=0;" vertex="1" parent="1">
          <mxGeometry x="120" y="44" width="52" height="36" as="geometry" />
        </mxCell>
        <mxCell id="q0bb3oW_kQukIJ3BtiQ_-28" value="" style="rounded=1;arcSize=10;dashed=0;fillColor=none;gradientColor=none;strokeWidth=2;" vertex="1" parent="1">
          <mxGeometry x="120" y="126" width="1000" height="560" as="geometry" />
        </mxCell>
        <mxCell id="q0bb3oW_kQukIJ3BtiQ_-29" value="" style="dashed=0;html=1;shape=mxgraph.aws3.virtual_private_cloud;fillColor=#F58536;gradientColor=none;dashed=0;" vertex="1" parent="1">
          <mxGeometry x="150" y="90" width="52" height="36" as="geometry" />
        </mxCell>
        <mxCell id="q0bb3oW_kQukIJ3BtiQ_-34" value="&lt;div align=&quot;left&quot;&gt;&lt;b&gt;VPC -&lt;span&gt;&lt;span&gt;&amp;nbsp; &lt;/span&gt;&lt;/span&gt;Name: d-signage-vpc, Network:&lt;span&gt;&lt;span&gt;&lt;span&gt; 10.10.0.0/16.&lt;/span&gt;&lt;/span&gt;&lt;/span&gt;&lt;/b&gt;&lt;span&gt;&lt;span&gt;&lt;span style=&quot;display: flex;&quot;&gt;&lt;span style=&quot;overflow: hidden; text-overflow: ellipsis;&quot; class=&quot;&quot;&gt;&lt;/span&gt;&lt;/span&gt;&lt;/span&gt;&lt;/span&gt;&lt;/div&gt;&lt;div&gt;&lt;span&gt;&lt;span&gt;&lt;span style=&quot;display: flex;&quot;&gt;&lt;span style=&quot;overflow: hidden; text-overflow: ellipsis;&quot; class=&quot;&quot;&gt;&lt;br&gt;&lt;/span&gt;&lt;/span&gt;&lt;/span&gt;&lt;/span&gt;&lt;/div&gt;" style="text;html=1;strokeColor=none;fillColor=none;align=center;verticalAlign=middle;whiteSpace=wrap;rounded=0;" vertex="1" parent="1">
          <mxGeometry x="445" y="110" width="390" height="30" as="geometry" />
        </mxCell>
        <mxCell id="q0bb3oW_kQukIJ3BtiQ_-35" value="&lt;div&gt;IGW&lt;/div&gt;&lt;div&gt;&lt;span&gt;d-signage-igw&lt;/span&gt;&lt;/div&gt;&lt;div&gt;&lt;span&gt;&lt;br&gt;&lt;/span&gt;&lt;/div&gt;" style="outlineConnect=0;dashed=0;verticalLabelPosition=bottom;verticalAlign=top;align=center;html=1;shape=mxgraph.aws3.internet_gateway;fillColor=#F58536;gradientColor=none;" vertex="1" parent="1">
          <mxGeometry x="1087" y="342" width="69" height="72" as="geometry" />
        </mxCell>
        <mxCell id="q0bb3oW_kQukIJ3BtiQ_-41" value="&lt;b&gt;EKS - Name: d-signage-eks, Zone: eu-west-3, Network: 172.30.0.0/16.&lt;/b&gt; " style="text;html=1;align=center;verticalAlign=middle;resizable=0;points=[];autosize=1;strokeColor=none;fillColor=none;" vertex="1" parent="1">
          <mxGeometry x="309.75" y="137.38" width="420" height="30" as="geometry" />
        </mxCell>
        <mxCell id="q0bb3oW_kQukIJ3BtiQ_-46" value="&lt;div&gt;Internet&lt;/div&gt;&lt;div&gt;&lt;br&gt;&lt;/div&gt;" style="aspect=fixed;perimeter=ellipsePerimeter;html=1;align=center;shadow=0;dashed=0;spacingTop=3;image;image=img/lib/active_directory/internet_cloud.svg;fontSize=25;" vertex="1" parent="1">
          <mxGeometry x="1400" y="327.6" width="160" height="100.8" as="geometry" />
        </mxCell>
        <mxCell id="q0bb3oW_kQukIJ3BtiQ_-49" value="" style="rounded=1;arcSize=10;dashed=1;fillColor=none;gradientColor=none;dashPattern=8 3 1 3;strokeWidth=2;fontSize=25;" vertex="1" parent="1">
          <mxGeometry x="202" y="200" width="199.5" height="400" as="geometry" />
        </mxCell>
        <mxCell id="q0bb3oW_kQukIJ3BtiQ_-50" value="" style="rounded=1;arcSize=10;dashed=1;fillColor=none;gradientColor=none;dashPattern=8 3 1 3;strokeWidth=2;fontSize=25;" vertex="1" parent="1">
          <mxGeometry x="440" y="200" width="199.5" height="400" as="geometry" />
        </mxCell>
        <mxCell id="q0bb3oW_kQukIJ3BtiQ_-51" value="" style="sketch=0;html=1;dashed=0;whitespace=wrap;fillColor=#2875E2;strokeColor=#ffffff;points=[[0.005,0.63,0],[0.1,0.2,0],[0.9,0.2,0],[0.5,0,0],[0.995,0.63,0],[0.72,0.99,0],[0.5,1,0],[0.28,0.99,0]];shape=mxgraph.kubernetes.icon;prIcon=node;fontSize=25;" vertex="1" parent="1">
          <mxGeometry x="590" y="178" width="60" height="60" as="geometry" />
        </mxCell>
        <mxCell id="q0bb3oW_kQukIJ3BtiQ_-52" value="" style="sketch=0;html=1;dashed=0;whitespace=wrap;fillColor=#2875E2;strokeColor=#ffffff;points=[[0.005,0.63,0],[0.1,0.2,0],[0.9,0.2,0],[0.5,0,0],[0.995,0.63,0],[0.72,0.99,0],[0.5,1,0],[0.28,0.99,0]];shape=mxgraph.kubernetes.icon;prIcon=node;fontSize=25;" vertex="1" parent="1">
          <mxGeometry x="350" y="178" width="60" height="60" as="geometry" />
        </mxCell>
        <mxCell id="q0bb3oW_kQukIJ3BtiQ_-54" value="&lt;div style=&quot;font-size: 14px;&quot; align=&quot;center&quot;&gt;&lt;font style=&quot;font-size: 14px;&quot;&gt;Node: &lt;/font&gt;&lt;font style=&quot;font-size: 14px;&quot;&gt;10.10.4.235, &lt;/font&gt;&lt;font style=&quot;font-size: 14px;&quot;&gt;&lt;br&gt;t3.medium&lt;/font&gt;&lt;br&gt;&lt;/div&gt;" style="text;html=1;align=left;verticalAlign=middle;resizable=0;points=[];autosize=1;strokeColor=none;fillColor=none;fontSize=25;" vertex="1" parent="1">
          <mxGeometry x="231.75" y="200" width="140" height="50" as="geometry" />
        </mxCell>
        <mxCell id="q0bb3oW_kQukIJ3BtiQ_-55" value="&lt;div style=&quot;font-size: 14px;&quot; align=&quot;center&quot;&gt;&lt;font style=&quot;font-size: 14px;&quot;&gt;Node: &lt;/font&gt;&lt;font style=&quot;font-size: 14px;&quot;&gt;10.10.5.48, &lt;/font&gt;&lt;font style=&quot;font-size: 14px;&quot;&gt;&lt;br&gt;t3.medium&lt;/font&gt;&lt;br&gt;&lt;/div&gt;" style="text;html=1;align=left;verticalAlign=middle;resizable=0;points=[];autosize=1;strokeColor=none;fillColor=none;fontSize=25;" vertex="1" parent="1">
          <mxGeometry x="469.75" y="200" width="130" height="50" as="geometry" />
        </mxCell>
        <mxCell id="q0bb3oW_kQukIJ3BtiQ_-56" value="&lt;div&gt;&lt;br&gt;&lt;/div&gt;&lt;div&gt;&lt;br&gt;&lt;/div&gt;" style="sketch=0;html=1;dashed=0;whitespace=wrap;fillColor=#2875E2;strokeColor=#ffffff;points=[[0.005,0.63,0],[0.1,0.2,0],[0.9,0.2,0],[0.5,0,0],[0.995,0.63,0],[0.72,0.99,0],[0.5,1,0],[0.28,0.99,0]];shape=mxgraph.kubernetes.icon;prIcon=pvc;fontSize=14;direction=south;rotation=-90;" vertex="1" parent="1">
          <mxGeometry x="730" y="167.38" width="59.25" height="81.25" as="geometry" />
        </mxCell>
        <mxCell id="q0bb3oW_kQukIJ3BtiQ_-57" value="PVC: data-prometheus-0" style="text;html=1;align=center;verticalAlign=middle;resizable=0;points=[];autosize=1;strokeColor=none;fillColor=none;fontSize=14;" vertex="1" parent="1">
          <mxGeometry x="669.63" y="230" width="180" height="30" as="geometry" />
        </mxCell>
        <mxCell id="q0bb3oW_kQukIJ3BtiQ_-58" value="" style="sketch=0;html=1;dashed=0;whitespace=wrap;fillColor=#2875E2;strokeColor=#ffffff;points=[[0.005,0.63,0],[0.1,0.2,0],[0.9,0.2,0],[0.5,0,0],[0.995,0.63,0],[0.72,0.99,0],[0.5,1,0],[0.28,0.99,0]];shape=mxgraph.kubernetes.icon;prIcon=pod;fontSize=14;" vertex="1" parent="1">
          <mxGeometry x="450" y="550" width="40" height="40" as="geometry" />
        </mxCell>
        <mxCell id="q0bb3oW_kQukIJ3BtiQ_-59" value="" style="sketch=0;html=1;dashed=0;whitespace=wrap;fillColor=#2875E2;strokeColor=#ffffff;points=[[0.005,0.63,0],[0.1,0.2,0],[0.9,0.2,0],[0.5,0,0],[0.995,0.63,0],[0.72,0.99,0],[0.5,1,0],[0.28,0.99,0]];shape=mxgraph.kubernetes.icon;prIcon=pod;fontSize=14;" vertex="1" parent="1">
          <mxGeometry x="450" y="450" width="40" height="40" as="geometry" />
        </mxCell>
        <mxCell id="q0bb3oW_kQukIJ3BtiQ_-60" value="" style="sketch=0;html=1;dashed=0;whitespace=wrap;fillColor=#2875E2;strokeColor=#ffffff;points=[[0.005,0.63,0],[0.1,0.2,0],[0.9,0.2,0],[0.5,0,0],[0.995,0.63,0],[0.72,0.99,0],[0.5,1,0],[0.28,0.99,0]];shape=mxgraph.kubernetes.icon;prIcon=pod;fontSize=14;" vertex="1" parent="1">
          <mxGeometry x="450" y="500" width="40" height="40" as="geometry" />
        </mxCell>
        <mxCell id="q0bb3oW_kQukIJ3BtiQ_-61" value="" style="sketch=0;html=1;dashed=0;whitespace=wrap;fillColor=#2875E2;strokeColor=#ffffff;points=[[0.005,0.63,0],[0.1,0.2,0],[0.9,0.2,0],[0.5,0,0],[0.995,0.63,0],[0.72,0.99,0],[0.5,1,0],[0.28,0.99,0]];shape=mxgraph.kubernetes.icon;prIcon=pod;fontSize=14;" vertex="1" parent="1">
          <mxGeometry x="450" y="400" width="40" height="40" as="geometry" />
        </mxCell>
        <mxCell id="q0bb3oW_kQukIJ3BtiQ_-62" value="" style="sketch=0;html=1;dashed=0;whitespace=wrap;fillColor=#2875E2;strokeColor=#ffffff;points=[[0.005,0.63,0],[0.1,0.2,0],[0.9,0.2,0],[0.5,0,0],[0.995,0.63,0],[0.72,0.99,0],[0.5,1,0],[0.28,0.99,0]];shape=mxgraph.kubernetes.icon;prIcon=pod;fontSize=14;" vertex="1" parent="1">
          <mxGeometry x="450" y="350" width="40" height="40" as="geometry" />
        </mxCell>
        <mxCell id="q0bb3oW_kQukIJ3BtiQ_-63" value="" style="sketch=0;html=1;dashed=0;whitespace=wrap;fillColor=#2875E2;strokeColor=#ffffff;points=[[0.005,0.63,0],[0.1,0.2,0],[0.9,0.2,0],[0.5,0,0],[0.995,0.63,0],[0.72,0.99,0],[0.5,1,0],[0.28,0.99,0]];shape=mxgraph.kubernetes.icon;prIcon=pod;fontSize=14;" vertex="1" parent="1">
          <mxGeometry x="450" y="302" width="40" height="40" as="geometry" />
        </mxCell>
        <mxCell id="q0bb3oW_kQukIJ3BtiQ_-64" value="" style="sketch=0;html=1;dashed=0;whitespace=wrap;fillColor=#2875E2;strokeColor=#ffffff;points=[[0.005,0.63,0],[0.1,0.2,0],[0.9,0.2,0],[0.5,0,0],[0.995,0.63,0],[0.72,0.99,0],[0.5,1,0],[0.28,0.99,0]];shape=mxgraph.kubernetes.icon;prIcon=pod;fontSize=14;" vertex="1" parent="1">
          <mxGeometry x="450" y="250" width="40" height="40" as="geometry" />
        </mxCell>
        <mxCell id="q0bb3oW_kQukIJ3BtiQ_-66" value="" style="sketch=0;html=1;dashed=0;whitespace=wrap;fillColor=#2875E2;strokeColor=#ffffff;points=[[0.005,0.63,0],[0.1,0.2,0],[0.9,0.2,0],[0.5,0,0],[0.995,0.63,0],[0.72,0.99,0],[0.5,1,0],[0.28,0.99,0]];shape=mxgraph.kubernetes.icon;prIcon=pod;fontSize=14;" vertex="1" parent="1">
          <mxGeometry x="210" y="260" width="40" height="40" as="geometry" />
        </mxCell>
        <mxCell id="q0bb3oW_kQukIJ3BtiQ_-67" value="" style="sketch=0;html=1;dashed=0;whitespace=wrap;fillColor=#2875E2;strokeColor=#ffffff;points=[[0.005,0.63,0],[0.1,0.2,0],[0.9,0.2,0],[0.5,0,0],[0.995,0.63,0],[0.72,0.99,0],[0.5,1,0],[0.28,0.99,0]];shape=mxgraph.kubernetes.icon;prIcon=pod;fontSize=14;" vertex="1" parent="1">
          <mxGeometry x="210" y="320" width="40" height="40" as="geometry" />
        </mxCell>
        <mxCell id="q0bb3oW_kQukIJ3BtiQ_-68" value="" style="sketch=0;html=1;dashed=0;whitespace=wrap;fillColor=#2875E2;strokeColor=#ffffff;points=[[0.005,0.63,0],[0.1,0.2,0],[0.9,0.2,0],[0.5,0,0],[0.995,0.63,0],[0.72,0.99,0],[0.5,1,0],[0.28,0.99,0]];shape=mxgraph.kubernetes.icon;prIcon=pod;fontSize=14;" vertex="1" parent="1">
          <mxGeometry x="210" y="374" width="40" height="40" as="geometry" />
        </mxCell>
        <mxCell id="q0bb3oW_kQukIJ3BtiQ_-69" value="&lt;font style=&quot;font-size: 13px;&quot;&gt;&lt;br class=&quot;Apple-interchange-newline&quot;&gt;&lt;/font&gt;&lt;div style=&quot;font-size: 13px;&quot; align=&quot;left&quot;&gt;&lt;font style=&quot;font-size: 13px;&quot;&gt;&lt;span style=&quot;font-family: Roboto, Helvetica, Arial, sans-serif; font-style: normal; font-variant-ligatures: normal; font-variant-caps: normal; font-weight: 400; letter-spacing: normal; text-indent: 0px; text-transform: none; word-spacing: 0px; -webkit-text-stroke-width: 0px; text-decoration-thickness: initial; text-decoration-style: initial; text-decoration-color: initial; display: inline !important; float: none;&quot;&gt;Pod: &lt;/span&gt;&lt;br&gt;&lt;span style=&quot;font-family: Roboto, Helvetica, Arial, sans-serif; font-style: normal; font-variant-ligatures: normal; font-variant-caps: normal; font-weight: 400; letter-spacing: normal; text-indent: 0px; text-transform: none; word-spacing: 0px; -webkit-text-stroke-width: 0px; text-decoration-thickness: initial; text-decoration-style: initial; text-decoration-color: initial; display: inline !important; float: none;&quot;&gt;d-signage-api-gateway&lt;/span&gt;&lt;/font&gt;&lt;/div&gt;" style="text;html=1;align=left;verticalAlign=middle;resizable=0;points=[];autosize=1;strokeColor=none;fillColor=none;fontSize=14;labelBackgroundColor=none;" vertex="1" parent="1">
          <mxGeometry x="490" y="238" width="150" height="60" as="geometry" />
        </mxCell>
        <mxCell id="q0bb3oW_kQukIJ3BtiQ_-70" value="&lt;span style=&quot;background-color: rgb(255, 255, 255); font-size: 12px;&quot;&gt;&lt;span style=&quot;font-family: Roboto, Helvetica, Arial, sans-serif; font-size: 12px; font-style: normal; font-variant-ligatures: normal; font-variant-caps: normal; font-weight: 400; letter-spacing: normal; text-indent: 0px; text-transform: none; word-spacing: 0px; -webkit-text-stroke-width: 0px; text-decoration-thickness: initial; text-decoration-style: initial; text-decoration-color: initial; display: inline !important; float: none;&quot;&gt;Pod:&lt;br style=&quot;font-size: 12px;&quot;&gt; d-signage-authentication-api&lt;/span&gt;&lt;/span&gt;" style="text;html=1;align=left;verticalAlign=middle;resizable=0;points=[];autosize=1;strokeColor=none;fillColor=none;fontSize=12;labelBackgroundColor=none;" vertex="1" parent="1">
          <mxGeometry x="490" y="302" width="170" height="40" as="geometry" />
        </mxCell>
        <mxCell id="q0bb3oW_kQukIJ3BtiQ_-72" value="Pod:&lt;br style=&quot;font-size: 12px;&quot;&gt; d-signage-devices-api" style="text;whiteSpace=wrap;html=1;fontSize=12;fontColor=#000000;align=left;" vertex="1" parent="1">
          <mxGeometry x="490" y="350" width="200" height="40" as="geometry" />
        </mxCell>
        <mxCell id="q0bb3oW_kQukIJ3BtiQ_-75" value="Pod: &lt;br style=&quot;font-size: 12px;&quot;&gt;d-signage-front" style="text;html=1;align=left;verticalAlign=middle;resizable=0;points=[];autosize=1;strokeColor=none;fillColor=none;fontSize=12;fontColor=#000000;" vertex="1" parent="1">
          <mxGeometry x="490" y="400" width="100" height="40" as="geometry" />
        </mxCell>
        <mxCell id="q0bb3oW_kQukIJ3BtiQ_-76" value="Pod:&lt;br style=&quot;font-size: 12px;&quot;&gt; d-signage-messages-api" style="text;html=1;align=left;verticalAlign=middle;resizable=0;points=[];autosize=1;strokeColor=none;fillColor=none;fontSize=12;fontColor=#000000;" vertex="1" parent="1">
          <mxGeometry x="490" y="450" width="150" height="40" as="geometry" />
        </mxCell>
        <mxCell id="q0bb3oW_kQukIJ3BtiQ_-77" value="Pod:&amp;nbsp; &lt;br style=&quot;font-size: 12px;&quot;&gt;d-signage-scheduler" style="text;html=1;align=left;verticalAlign=middle;resizable=0;points=[];autosize=1;strokeColor=none;fillColor=none;fontSize=12;fontColor=#000000;" vertex="1" parent="1">
          <mxGeometry x="490" y="500" width="130" height="40" as="geometry" />
        </mxCell>
        <mxCell id="q0bb3oW_kQukIJ3BtiQ_-78" value="Pod: &lt;br style=&quot;font-size: 12px;&quot;&gt;d-signage-wizard-gateway" style="text;html=1;align=left;verticalAlign=middle;resizable=0;points=[];autosize=1;strokeColor=none;fillColor=none;fontSize=12;fontColor=#000000;" vertex="1" parent="1">
          <mxGeometry x="490" y="550" width="160" height="40" as="geometry" />
        </mxCell>
        <mxCell id="q0bb3oW_kQukIJ3BtiQ_-79" value="&lt;font style=&quot;font-size: 13px;&quot;&gt;&lt;br class=&quot;Apple-interchange-newline&quot;&gt;&lt;/font&gt;&lt;div style=&quot;font-size: 13px;&quot; align=&quot;left&quot;&gt;&lt;font style=&quot;font-size: 13px;&quot;&gt;&lt;span style=&quot;font-family: Roboto, Helvetica, Arial, sans-serif; font-style: normal; font-variant-ligatures: normal; font-variant-caps: normal; font-weight: 400; letter-spacing: normal; text-indent: 0px; text-transform: none; word-spacing: 0px; -webkit-text-stroke-width: 0px; text-decoration-thickness: initial; text-decoration-style: initial; text-decoration-color: initial; display: inline !important; float: none;&quot;&gt;Pod: &lt;br&gt;&lt;/span&gt;&amp;nbsp;d-signage-mediaconverter&lt;br&gt;&lt;/font&gt;&lt;/div&gt;" style="text;html=1;align=left;verticalAlign=middle;resizable=0;points=[];autosize=1;strokeColor=none;fillColor=none;fontSize=14;labelBackgroundColor=none;" vertex="1" parent="1">
          <mxGeometry x="250" y="239.99999999999997" width="180" height="60" as="geometry" />
        </mxCell>
        <mxCell id="q0bb3oW_kQukIJ3BtiQ_-80" value="&lt;font style=&quot;font-size: 13px;&quot;&gt;&lt;br class=&quot;Apple-interchange-newline&quot;&gt;&lt;/font&gt;&lt;div style=&quot;font-size: 13px;&quot; align=&quot;left&quot;&gt;&lt;font style=&quot;font-size: 13px;&quot;&gt;&lt;span style=&quot;font-family: Roboto, Helvetica, Arial, sans-serif; font-style: normal; font-variant-ligatures: normal; font-variant-caps: normal; font-weight: 400; letter-spacing: normal; text-indent: 0px; text-transform: none; word-spacing: 0px; -webkit-text-stroke-width: 0px; text-decoration-thickness: initial; text-decoration-style: initial; text-decoration-color: initial; display: inline !important; float: none;&quot;&gt;Pod: &lt;br&gt;d-signage-monitoring&lt;/span&gt;&lt;br&gt;&lt;/font&gt;&lt;/div&gt;" style="text;html=1;align=left;verticalAlign=middle;resizable=0;points=[];autosize=1;strokeColor=none;fillColor=none;fontSize=14;labelBackgroundColor=none;" vertex="1" parent="1">
          <mxGeometry x="250" y="302" width="150" height="60" as="geometry" />
        </mxCell>
        <mxCell id="q0bb3oW_kQukIJ3BtiQ_-81" value="&lt;br&gt;&lt;div align=&quot;left&quot;&gt;Pod:&lt;br&gt;&lt;/div&gt;&lt;div align=&quot;left&quot;&gt;d-signage-rpc&lt;/div&gt;" style="text;html=1;align=left;verticalAlign=middle;resizable=0;points=[];autosize=1;strokeColor=none;fillColor=none;fontSize=12;fontColor=#000000;" vertex="1" parent="1">
          <mxGeometry x="251.75" y="360" width="100" height="60" as="geometry" />
        </mxCell>
        <mxCell id="q0bb3oW_kQukIJ3BtiQ_-89" value="" style="rounded=1;arcSize=10;dashed=1;strokeColor=#00CC00;fillColor=none;gradientColor=none;dashPattern=8 4;strokeWidth=2;labelBackgroundColor=#FFFFFF;fontSize=12;fontColor=#00CC00;labelBorderColor=#4C0099;" vertex="1" parent="1">
          <mxGeometry x="190" y="250.5" width="460" height="379.5" as="geometry" />
        </mxCell>
        <mxCell id="q0bb3oW_kQukIJ3BtiQ_-90" value="&lt;font color=&quot;#006600&quot;&gt;Namespace: prod.&lt;/font&gt;" style="text;html=1;align=center;verticalAlign=middle;resizable=0;points=[];autosize=1;strokeColor=none;fillColor=none;fontSize=12;fontColor=#00CC00;" vertex="1" parent="1">
          <mxGeometry x="360" y="610" width="120" height="30" as="geometry" />
        </mxCell>
        <mxCell id="q0bb3oW_kQukIJ3BtiQ_-92" value="" style="sketch=0;html=1;dashed=0;whitespace=wrap;fillColor=#2875E2;strokeColor=#ffffff;points=[[0.005,0.63,0],[0.1,0.2,0],[0.9,0.2,0],[0.5,0,0],[0.995,0.63,0],[0.72,0.99,0],[0.5,1,0],[0.28,0.99,0]];shape=mxgraph.kubernetes.icon;prIcon=ns;labelBackgroundColor=#FFFFFF;labelBorderColor=#4C0099;fontSize=12;fontColor=#004C99;" vertex="1" parent="1">
          <mxGeometry x="320" y="605" width="51.75" height="35" as="geometry" />
        </mxCell>
        <mxCell id="q0bb3oW_kQukIJ3BtiQ_-109" style="edgeStyle=orthogonalEdgeStyle;rounded=0;orthogonalLoop=1;jettySize=auto;html=1;entryX=0.005;entryY=0.63;entryDx=0;entryDy=0;entryPerimeter=0;fontSize=12;fontColor=#33001A;" edge="1" parent="1" source="q0bb3oW_kQukIJ3BtiQ_-97" target="q0bb3oW_kQukIJ3BtiQ_-105">
          <mxGeometry relative="1" as="geometry">
            <Array as="points">
              <mxPoint x="830" y="310" />
              <mxPoint x="830" y="310" />
            </Array>
          </mxGeometry>
        </mxCell>
        <mxCell id="q0bb3oW_kQukIJ3BtiQ_-97" value="" style="aspect=fixed;html=1;points=[];align=center;image;fontSize=12;image=img/lib/azure2/compute/Kubernetes_Services.svg;labelBackgroundColor=#FFFFFF;labelBorderColor=#4C0099;strokeColor=#00CC00;fontColor=#006600;" vertex="1" parent="1">
          <mxGeometry x="725.63" y="282" width="68" height="60" as="geometry" />
        </mxCell>
        <mxCell id="q0bb3oW_kQukIJ3BtiQ_-103" value="&lt;br&gt;&lt;div align=&quot;left&quot;&gt;&lt;br&gt;&lt;br&gt;&lt;br&gt;&lt;br&gt;&lt;br&gt;&lt;br&gt;&lt;br&gt;&lt;br&gt;&lt;br&gt;&lt;/div&gt;						&lt;p style=&quot;line-height: 100%; margin-bottom: 0in&quot; align=&quot;left&quot;&gt;&amp;nbsp;&amp;nbsp;&amp;nbsp;&amp;nbsp;&amp;nbsp;&amp;nbsp;&amp;nbsp; Service:&lt;br&gt;&lt;/p&gt;&lt;div align=&quot;left&quot;&gt;&lt;ol&gt;&lt;li&gt;&lt;span style=&quot;display: inline-block; border: none; padding: 0in&quot;&gt;d-signage-api-gateway&lt;/span&gt;&lt;span style=&quot;display: inline-block; border: none; padding: 0in&quot;&gt;&lt;/span&gt;&lt;/li&gt;&lt;li&gt;&lt;span style=&quot;display: inline-block; border: none; padding: 0in&quot;&gt;d-signage-authentication-api&lt;/span&gt;&lt;/li&gt;&lt;li&gt;&lt;span style=&quot;display: inline-block; border: none; padding: 0in&quot;&gt;&lt;/span&gt;&lt;span style=&quot;display: inline-block; border: none; padding: 0in&quot;&gt;d-signage-devices-api&lt;/span&gt;&lt;span style=&quot;display: inline-block; border: none; padding: 0in&quot;&gt;&lt;/span&gt;&lt;/li&gt;&lt;li&gt;&lt;span style=&quot;display: inline-block; border: none; padding: 0in&quot;&gt;d-signage-front&lt;/span&gt;&lt;/li&gt;&lt;li&gt;&lt;span style=&quot;display: inline-block; border: none; padding: 0in&quot;&gt;&lt;/span&gt;&lt;span style=&quot;display: inline-block; border: none; padding: 0in&quot;&gt;d-signage-mediaconverter&lt;/span&gt;&lt;/li&gt;&lt;li&gt;&lt;span style=&quot;display: inline-block; border: none; padding: 0in&quot;&gt;&lt;/span&gt;&lt;span style=&quot;display: inline-block; border: none; padding: 0in&quot;&gt;d-signage-messages-api&lt;/span&gt;&lt;/li&gt;&lt;li&gt;&lt;span style=&quot;display: inline-block; border: none; padding: 0in&quot;&gt;&lt;/span&gt;&lt;span style=&quot;display: inline-block; border: none; padding: 0in&quot;&gt;d-signage-monitoring&lt;/span&gt;&lt;span style=&quot;display: inline-block; border: none; padding: 0in&quot;&gt;&lt;/span&gt;&lt;/li&gt;&lt;li&gt;&lt;span style=&quot;display: inline-block; border: none; padding: 0in&quot;&gt;d-signage-rpc&lt;/span&gt;&lt;span style=&quot;display: inline-block; border: none; padding: 0in&quot;&gt;&lt;/span&gt;&lt;/li&gt;&lt;li&gt;&lt;span style=&quot;display: inline-block; border: none; padding: 0in&quot;&gt;d-signage-scheduler&lt;/span&gt;&lt;/li&gt;&lt;li&gt;&lt;span style=&quot;display: inline-block; border: none; padding: 0in&quot;&gt;d-signage-wizard-gateway&lt;/span&gt;&lt;br&gt;&lt;/li&gt;&lt;/ol&gt;&lt;/div&gt;&lt;p style=&quot;line-height: 100%; margin-bottom: 0in&quot; align=&quot;left&quot;&gt;&lt;br&gt;&lt;/p&gt;&lt;div align=&quot;left&quot;&gt;&lt;br&gt;&lt;/div&gt;" style="text;html=1;align=left;verticalAlign=middle;resizable=0;points=[];autosize=1;strokeColor=none;fillColor=none;fontSize=12;fontColor=#33001A;" vertex="1" parent="1">
          <mxGeometry x="639.5" y="167.38" width="210" height="380" as="geometry" />
        </mxCell>
        <mxCell id="q0bb3oW_kQukIJ3BtiQ_-104" value="" style="rounded=1;arcSize=10;dashed=1;strokeColor=#ff0000;fillColor=none;gradientColor=none;dashPattern=8 4;strokeWidth=2;labelBackgroundColor=#FFFFFF;labelBorderColor=#4C0099;fontSize=12;fontColor=#33001A;" vertex="1" parent="1">
          <mxGeometry x="160" y="162.25" width="719.5" height="487.5" as="geometry" />
        </mxCell>
        <mxCell id="q0bb3oW_kQukIJ3BtiQ_-110" style="edgeStyle=orthogonalEdgeStyle;rounded=0;orthogonalLoop=1;jettySize=auto;html=1;exitX=0.005;exitY=0.63;exitDx=0;exitDy=0;exitPerimeter=0;entryX=0.947;entryY=0.463;entryDx=0;entryDy=0;entryPerimeter=0;fontSize=12;fontColor=#33001A;" edge="1" parent="1" source="q0bb3oW_kQukIJ3BtiQ_-105" target="q0bb3oW_kQukIJ3BtiQ_-97">
          <mxGeometry relative="1" as="geometry">
            <Array as="points">
              <mxPoint x="830" y="310" />
              <mxPoint x="830" y="310" />
            </Array>
          </mxGeometry>
        </mxCell>
        <mxCell id="q0bb3oW_kQukIJ3BtiQ_-105" value="" style="sketch=0;html=1;dashed=0;whitespace=wrap;fillColor=#2875E2;strokeColor=#ffffff;points=[[0.005,0.63,0],[0.1,0.2,0],[0.9,0.2,0],[0.5,0,0],[0.995,0.63,0],[0.72,0.99,0],[0.5,1,0],[0.28,0.99,0]];shape=mxgraph.kubernetes.icon;prIcon=ing;labelBackgroundColor=#FFFFFF;labelBorderColor=#4C0099;fontSize=12;fontColor=#006600;" vertex="1" parent="1">
          <mxGeometry x="850" y="279.6" width="50" height="48" as="geometry" />
        </mxCell>
        <mxCell id="q0bb3oW_kQukIJ3BtiQ_-111" value="" style="editableCssRules=.*;shape=image;verticalLabelPosition=bottom;labelBackgroundColor=#ffffff;verticalAlign=top;aspect=fixed;imageAspect=0;image=data:image/svg+xml,PHN2ZyB4bWxucz0iaHR0cDovL3d3dy53My5vcmcvMjAwMC9zdmciIHhtbG5zOnY9Imh0dHBzOi8vdmVjdGEuaW8vbmFubyIgd2lkdGg9IjcwMi44NDYzMTM0NzY1NjI1IiBoZWlnaHQ9IjY4MS45NjcxMDIwNTA3ODEyIiB2aWV3Qm94PSIxMC4wMDEwMjYxNTM1NjQ0NTMgMTAuMDAwOTMzNjQ3MTU1NzYyIDcwMi44NDYzMTM0NzY1NjI1IDY4MS45NjcxMDIwNTA3ODEyIj4mI3hhOwk8c3R5bGUgdHlwZT0idGV4dC9jc3MiPiYjeGE7CS5zdDB7ZmlsbDojMzI2Y2U1O30mI3hhOwkuc3Qxe2ZpbGw6I2ZmZjt9JiN4YTsJPC9zdHlsZT4mI3hhOwk8cGF0aCBjbGFzcz0ic3QwIiBkPSJNMzU4Ljk4NyAxMC4wNmMtNi4yMTMuMzEzLTEyLjMwMSAxLjg1NC0xNy45MDYgNC41MzFMOTYuNzM3IDEzMS4zNDJjLTEyLjgxMSA2LjExOC0yMi4xMTYgMTcuNjg5LTI1LjI4MSAzMS40MzhsLTYwLjI4MSAyNjIuMjVjLTIuODEyIDEyLjIwNy0uNTI0IDI1LjAyNCA2LjM0NCAzNS41MzFhNDYuMzUgNDYuMzUgMCAwIDAgMi42NTYgMy42ODhsMTY5LjEyNSAyMTAuMjgxYzguODY4IDExLjAyMiAyMi4zMTMgMTcuNDQgMzYuNTMxIDE3LjQzOGwyNzEuMjE5LS4wNjJjMTQuMjEyLjAxIDI3LjY1Ny02LjM5NiAzNi41MzEtMTcuNDA2bDE2OS4wNjMtMjEwLjMxM2M4Ljg3My0xMS4wMjggMTIuMTk3LTI1LjQ2NCA5LjAzMS0zOS4yMTlsLTYwLjM3NS0yNjIuMjVjLTMuMTY1LTEzLjc0OC0xMi40Ny0yNS4zMTktMjUuMjgxLTMxLjQzN0wzODEuNjQzIDE0LjU5MmMtNy4wNS0zLjM2OC0xNC44NDEtNC45MjYtMjIuNjU2LTQuNTMxeiIvPiYjeGE7CTxwYXRoIGNsYXNzPSJzdDEgc3QyIiBkPSJNMzYxLjQwOCA5OS4zMDhjLTguMDc3LjAwMS0xNC42MjYgNy4yNzYtMTQuNjI1IDE2LjI1IDAgLjEzOC4wMjguMjY5LjAzMS40MDYtLjAxMiAxLjIxOS0uMDcxIDIuNjg4LS4wMzEgMy43NS4xOTMgNS4xNzYgMS4zMjEgOS4xMzcgMiAxMy45MDYgMS4yMyAxMC4yMDcgMi4yNjEgMTguNjY3IDEuNjI1IDI2LjUzMS0uNjE5IDIuOTY1LTIuODAzIDUuNjc3LTQuNzUgNy41NjNsLS4zNDQgNi4xODhjLTguNzc3LjcyNy0xNy42MTIgMi4wNTktMjYuNDM3IDQuMDYzLTM3Ljk3NSA4LjYyMi03MC42NyAyOC4xODMtOTUuNTYyIDU0LjU5NC0xLjYxNS0xLjEwMi00LjQ0MS0zLjEyOS01LjI4MS0zLjc1LTIuNjExLjM1My01LjI1IDEuMTU4LTguNjg3LS44NDQtNi41NDUtNC40MDYtMTIuNTA2LTEwLjQ4Ny0xOS43MTktMTcuODEyLTMuMzA1LTMuNTA0LTUuNjk4LTYuODQxLTkuNjI1LTEwLjIxOS0uODkyLS43NjctMi4yNTMtMS44MDUtMy4yNS0yLjU5NC0zLjA3LTIuNDQ4LTYuNjkxLTMuNzI0LTEwLjE4Ny0zLjg0NC00LjQ5Ni0uMTU0LTguODI0IDEuNjA0LTExLjY1NiA1LjE1Ni01LjAzNSA2LjMxNS0zLjQyMyAxNS45NjggMy41OTQgMjEuNTYzLjA3MS4wNTcuMTQ3LjEwMS4yMTkuMTU2Ljk2NC43ODIgMi4xNDUgMS43ODMgMy4wMzEgMi40MzggNC4xNjcgMy4wNzcgNy45NzMgNC42NTEgMTIuMTI1IDcuMDk0IDguNzQ3IDUuNDAyIDE1Ljk5OCA5Ljg4MSAyMS43NSAxNS4yODEgMi4yNDYgMi4zOTQgMi42MzkgNi42MTMgMi45MzggOC40MzhsNC42ODggNC4xODhjLTI1LjA5MyAzNy43NjQtMzYuNzA3IDg0LjQwOS0yOS44NDQgMTMxLjkzOGwtNi4xMjUgMS43ODFjLTEuNjE0IDIuMDg1LTMuODk1IDUuMzY1LTYuMjgxIDYuMzQ0LTcuNTI1IDIuMzctMTUuOTk0IDMuMjQxLTI2LjIxOSA0LjMxMy00LjguMzk5LTguOTQyLjE2MS0xNC4wMzEgMS4xMjUtMS4xMi4yMTItMi42ODEuNjE5LTMuOTA2LjkwNi0uMDQzLjAwOS0uMDgyLjAyMi0uMTI1LjAzMS0uMDY3LjAxNS0uMTU1LjA0OC0uMjE5LjA2My04LjYyIDIuMDgzLTE0LjE1OCAxMC4wMDYtMTIuMzc1IDE3LjgxM3MxMC4yMDMgMTIuNTU3IDE4Ljg3NSAxMC42ODhjLjA2My0uMDE0LjE1NC0uMDE3LjIxOS0uMDMxLjA5OC0uMDIyLjE4NC0uMDcuMjgxLS4wOTQgMS4yMDktLjI2NSAyLjcyNC0uNTYxIDMuNzgxLS44NDQgNS4wMDMtMS4zNCA4LjYyNy0zLjMwOCAxMy4xMjUtNS4wMzEgOS42NzctMy40NzEgMTcuNjkyLTYuMzcgMjUuNS03LjUgMy4yNjEtLjI1NSA2LjY5NyAyLjAxMiA4LjQwNiAyLjk2OWw2LjM3NS0xLjA5NGMxNC42NyA0NS40ODMgNDUuNDE0IDgyLjI0NSA4NC4zNDQgMTA1LjMxMmwtMi42NTYgNi4zNzVjLjk1NyAyLjQ3NSAyLjAxMyA1LjgyNSAxLjMgOC4yNjktMi44MzkgNy4zNjEtNy43MDEgMTUuMTMxLTEzLjIzOCAyMy43OTMtMi42ODEgNC4wMDItNS40MjUgNy4xMDgtNy44NDQgMTEuNjg4LS41NzkgMS4wOTYtMS4zMTYgMi43NzktMS44NzUgMy45MzgtMy43NTkgOC4wNDItMS4wMDIgMTcuMzA1IDYuMjE5IDIwLjc4MSA3LjI2NiAzLjQ5OCAxNi4yODQtLjE5MSAyMC4xODctOC4yNS4wMDYtLjAxMS4wMjYtLjAyLjAzMS0uMDMxcy0uMDA0LS4wMjMgMC0uMDMxYy41NTYtMS4xNDMgMS4zNDQtMi42NDQgMS44MTMtMy43MTkgMi4wNzItNC43NDcgMi43NjItOC44MTUgNC4yMTktMTMuNDA2IDMuODctOS43MiA1Ljk5Ni0xOS45MTkgMTEuMzIzLTI2LjI3NCAxLjQ1OS0xLjc0IDMuODM3LTIuNDA5IDYuMzAyLTMuMDdsMy4zMTMtNmMzMy45MzggMTMuMDI3IDcxLjkyNyAxNi41MjIgMTA5Ljg3NSA3LjkwNmExODkuNzcgMTg5Ljc3IDAgMCAwIDI1LjA5NC03LjU2MmwzLjEyNSA1LjYyNWMyLjUwNi44MTUgNS4yNCAxLjIzNiA3LjQ2OSA0LjUzMSAzLjk4NSA2LjgwOSA2LjcxMSAxNC44NjQgMTAuMDMxIDI0LjU5NCAxLjQ1NyA0LjU5MSAyLjE3OCA4LjY1OSA0LjI1IDEzLjQwNi40NzIgMS4wODIgMS4yNTYgMi42MDUgMS44MTMgMy43NSAzLjg5NSA4LjA4NSAxMi45NDIgMTEuNzg3IDIwLjIxOSA4LjI4MSA3LjIxOS0zLjQ3OCA5Ljk4LTEyLjc0IDYuMjE5LTIwLjc4MWwtMS45MDYtMy45MzdjLTIuNDE5LTQuNTgtNS4xNjMtNy42NTQtNy44NDQtMTEuNjU2LTUuNTM3LTguNjYyLTEwLjEzLTE1Ljg1OC0xMi45NjktMjMuMjE5LTEuMTg3LTMuNzk3LjItNi4xNTggMS4xMjUtOC42MjUtLjU1NC0uNjM1LTEuNzM5LTQuMjItMi40MzctNS45MDYgNDAuNDU3LTIzLjg4OCA3MC4yOTktNjIuMDIxIDg0LjMxMy0xMDYuMDYyIDEuODkyLjI5NyA1LjE4Mi44NzkgNi4yNSAxLjA5NCAyLjItMS40NTEgNC4yMjItMy4zNDQgOC4xODgtMy4wMzEgNy44MDggMS4xMjkgMTUuODIzIDQuMDMgMjUuNSA3LjUgNC40OTggMS43MjMgOC4xMjIgMy43MjMgMTMuMTI1IDUuMDYzIDEuMDU3LjI4MyAyLjU3Mi41NDcgMy43ODEuODEzLjA5Ny4wMjQuMTgzLjA3MS4yODEuMDk0LjA2NS4wMTUuMTU2LjAxNy4yMTkuMDMxIDguNjcyIDEuODY3IDE3LjA5NC0yLjg3OSAxOC44NzUtMTAuNjg3cy0zLjc1NC0xNS43MzItMTIuMzc1LTE3LjgxMmMtMS4yNTQtLjI4NS0zLjAzMi0uNzY5LTQuMjUtMS01LjA4OS0uOTY0LTkuMjMxLS43MjYtMTQuMDMxLTEuMTI1LTEwLjIyNS0xLjA3MS0xOC42OTMtMS45NDMtMjYuMjE5LTQuMzEyLTMuMDY4LTEuMTktNS4yNTEtNC44NDEtNi4zMTMtNi4zNDRsLTUuOTA2LTEuNzE5YzMuMDYyLTIyLjE1NCAyLjIzNy00NS4yMTEtMy4wNjItNjguMjgxLTUuMzQ4LTIzLjI4NS0xNC44LTQ0LjU4MS0yNy40MDYtNjMuMzQ0bDUuMTg4LTQuNjU2Yy4yMzctMi42MjQuMDMzLTUuMzc2IDIuNzUtOC4yODEgNS43NTEtNS40MDEgMTMuMDAzLTkuODc5IDIxLjc1LTE1LjI4MSA0LjE1Mi0yLjQ0MyA3Ljk5LTQuMDE3IDEyLjE1Ni03LjA5NC45NDItLjY5NiAyLjIyOS0xLjc5OCAzLjIxOS0yLjU5NCA3LjAxNS01LjU5NiA4LjYzMS0xNS4yNDggMy41OTQtMjEuNTYycy0xNC43OTctNi45MDktMjEuODEyLTEuMzEyYy0uOTk5Ljc5MS0yLjM1NCAxLjgyMy0zLjI1IDIuNTk0LTMuOTI3IDMuMzc4LTYuMzUxIDYuNzE0LTkuNjU2IDEwLjIxOS03LjIxMiA3LjMyNi0xMy4xNzQgMTMuNDM4LTE5LjcxOSAxNy44NDQtMi44MzYgMS42NTEtNi45OSAxLjA4LTguODc1Ljk2OWwtNS41NjIgMy45NjljLTMxLjcxOS0zMy4yNjEtNzQuOTA1LTU0LjUyNS0xMjEuNDA2LTU4LjY1NmwtLjM0NC02LjUzMWMtMS45MDQtMS44MjItNC4yMDMtMy4zNzctNC43ODEtNy4zMTItLjYzNi03Ljg2NC40MjYtMTYuMzI1IDEuNjU2LTI2LjUzMS42NzktNC43NjkgMS44MDctOC43MyAyLTEzLjkwNi4wNDQtMS4xNzctLjAyNi0yLjg4NC0uMDMxLTQuMTU2LS4wMDEtOC45NzQtNi41NDgtMTYuMjUxLTE0LjYyNS0xNi4yNXptLTE4LjMxMiAxMTMuNDM4bC00LjM0NCA3Ni43MTktLjMxMi4xNTZjLS4yOTEgNi44NjMtNS45NCAxMi4zNDQtMTIuODc1IDEyLjM0NGExMi44MiAxMi44MiAwIDAgMS03LjU5NC0yLjQ2OWwtLjEyNS4wNjMtNjIuOTA2LTQ0LjU5NGMxOS4zMzQtMTkuMDExIDQ0LjA2My0zMy4wNiA3Mi41NjItMzkuNTMxIDUuMjA2LTEuMTgyIDEwLjQxLTIuMDU5IDE1LjU5NC0yLjY4N3ptMzYuNjU2IDBjMzMuMjczIDQuMDkyIDY0LjA0NSAxOS4xNTkgODcuNjI1IDQyLjI1bC02Mi41IDQ0LjMxMy0uMjE5LS4wOTRhMTIuOTEgMTIuOTEgMCAwIDEtMTcuNjg3LTIuMzc1Yy0xLjc3MS0yLjIyMS0yLjcwMS00LjgzMi0yLjgxMi03LjQ2OWwtLjA2Mi0uMDMxek0yMzIuMTI2IDI4My42Mmw1Ny40MzcgNTEuMzc1LS4wNjIuMzEzYTEyLjg4IDEyLjg4IDAgMCAxIDEuNjI1IDE3Ljc1IDEyLjg5IDEyLjg5IDAgMCAxLTYuNjg3IDQuNDA2bC0uMDYyLjI1LTczLjYyNSAyMS4yNWMtMy43NDctMzQuMjY1IDQuMzI5LTY3LjU3NCAyMS4zNzUtOTUuMzQ0em0yNTguMTU2LjAzMWM4LjUzNCAxMy44MzMgMTQuOTk3IDI5LjI4MiAxOC44NDQgNDYuMDMxIDMuODAxIDE2LjU0OCA0Ljc1NSAzMy4wNjcgMy4xODggNDkuMDMxbC03NC0yMS4zMTItLjA2Mi0uMzEyYy02LjYyNy0xLjgxMS0xMC42OTktOC41NTItOS4xNTYtMTUuMzEyLjYzMi0yLjc3IDIuMTAyLTUuMTEzIDQuMDk0LTYuODQ0bC0uMDMxLS4xNTYgNTcuMTI1LTUxLjEyNXptLTE0MC42NTYgNTUuMzEzaDIzLjUzMWwxNC42MjUgMTguMjgxLTUuMjUgMjIuODEzLTIxLjEyNSAxMC4xNTYtMjEuMTg3LTEwLjE4Ny01LjI1LTIyLjgxMnptNzUuNDM4IDYyLjU2M2ExMi44MyAxMi44MyAwIDAgMSAyLjk2OS4yMTlsLjEyNS0uMTU2IDc2LjE1NiAxMi44NzVjLTExLjE0NiAzMS4zMTMtMzIuNDczIDU4LjQ0LTYwLjk2OSA3Ni41OTRsLTI5LjU2Mi03MS40MDYuMDk0LS4xMjVjLTIuNzE2LTYuMzEuMDAyLTEzLjcxIDYuMjUtMTYuNzE5IDEuNi0uNzcgMy4yNzEtMS4xOTcgNC45MzgtMS4yODF6bS0xMjcuOTA2LjMxM2ExMi45IDEyLjkgMCAwIDEgMTIuMzc1IDEwLjAzMSAxMi43NyAxMi43NyAwIDAgMS0uNzE5IDcuOTM4bC4yMTkuMjgxLTI5LjI1IDcwLjY4OGMtMjcuMzQ3LTE3LjU0OS00OS4xMjktNDMuODI0LTYwLjc4MS03Ni4wNjJsNzUuNS0xMi44MTIuMTI1LjE1NmMuODQ1LS4xNTUgMS43MDEtLjIzIDIuNTMxLS4yMTl6bTYzLjc4MSAzMC45NjljMi4wMjQtLjA3NCA0LjA3OS4zNDEgNi4wMzEgMS4yODEgMi41NiAxLjIzMyA0LjUzNyAzLjE3MyA1Ljc4MSA1LjVoLjI4MWwzNy4yMTkgNjcuMjVjLTQuODMgMS42MTktOS43OTYgMy4wMDMtMTQuODc1IDQuMTU2LTI4LjQ2NSA2LjQ2My01Ni44MzkgNC41MDUtODIuNTMxLTQuMjVsMzcuMTI1LTY3LjEyNWguMDYzYTEyLjkxIDEyLjkxIDAgMCAxIDEwLjkwNi02LjgxMnoiIHN0cm9rZT0ibm9uZSIgc3Ryb2tlLXdpZHRoPSIuMjUiLz4mI3hhOzwvc3ZnPg==;fontColor=default;fontSize=12;" vertex="1" parent="1">
          <mxGeometry x="190" y="137.38" width="50" height="47.5" as="geometry" />
        </mxCell>
      </root>
    </mxGraphModel>
  </diagram>
</mxfile>
